# xmcd
#
# Track frame offsets:
# 150
# 21500
# 37354
# 60906
# 79505
# 100308
# 122992
# 143172
# 161062
# 179177
# 193746
# 215184
# 233378
# 251113
# 269322
# 282561
# 296456
# 312685
# 325742
# 337425
#
# Disc length: 4670 seconds
#
#
# Revision: 0
# Processed by: cddbd v1.5.1PL2 Copyright (c) Steve Scherf et al.
# Submitted via: FreeRIP 2.945 
#
DISCID=4b123c14
DTITLE=Kasey Chambers - Wayward Angel
DYEAR=2004
DGENRE=Country
TTITLE0=Pony - Kasey Chambers
TTITLE1=Hollywood - Kasey Chambers
TTITLE2=Stronger - Kasey Chambers
TTITLE3=Bluebird - Kasey Chambers
TTITLE4=More Than Ordinary - Kasey Chambers
TTITLE5=Wayward Angel - Kasey Chambers
TTITLE6=Paper Aeroplane - Kasey Chambers
TTITLE7=Like A River - Kasey Chambers
TTITLE8=For Sale - Kasey Chambers
TTITLE9=Follow You Home - Kasey Chambers
TTITLE10=Mother - Kasey Chambers
TTITLE11=Guilty As Sin - Kasey Chambers
TTITLE12=Lost And Found - Kasey Chambers
TTITLE13=Saturated - Kasey Chambers
TTITLE14=Ashes of Love - Unknown
TTITLE15=I'm Goin There - Unknown
TTITLE16=Halo Down From Heaven - Unknown
TTITLE17=I hear A Freight Train - Kasey Chambers?
TTITLE18=I Just wanna - Kasey Chambers?
TTITLE19=Am I the Only One - Kasey Chambers and Paul Kelly?
EXTD=
EXTT0=
EXTT1=
EXTT2=
EXTT3=
EXTT4=
EXTT5=
EXTT6=
EXTT7=
EXTT8=
EXTT9=
EXTT10=
EXTT11=
EXTT12=
EXTT13=
EXTT14=
EXTT15=
EXTT16=
EXTT17=
EXTT18=
EXTT19=
PLAYORDER=
